<mxfile host="65bd71144e">
    <diagram id="-_R6i1YwqpkWOI7b-qS1" name="Page-1">
        <mxGraphModel dx="1216" dy="800" grid="1" gridSize="12" guides="1" tooltips="1" connect="1" arrows="1" fold="1" page="1" pageScale="1" pageWidth="1169" pageHeight="827" math="0" shadow="0">
            <root>
                <mxCell id="0"/>
                <mxCell id="1" parent="0"/>
                <mxCell id="21" value="" style="group;rounded=1;" parent="1" vertex="1" connectable="0">
                    <mxGeometry x="60" y="72" width="242" height="256" as="geometry"/>
                </mxCell>
                <mxCell id="19" style="edgeStyle=none;html=1;exitX=0.5;exitY=0;exitDx=0;exitDy=0;fontSize=18;" parent="21" source="2" edge="1">
                    <mxGeometry relative="1" as="geometry">
                        <mxPoint x="121" y="33.6" as="targetPoint"/>
                    </mxGeometry>
                </mxCell>
                <mxCell id="2" value="&lt;font size=&quot;3&quot;&gt;&lt;b&gt;JOB CATEGORY&lt;/b&gt;&lt;/font&gt;" style="swimlane;fontStyle=0;childLayout=stackLayout;horizontal=1;startSize=26;fillColor=none;horizontalStack=0;resizeParent=1;resizeParentMax=0;resizeLast=0;collapsible=1;marginBottom=0;html=1;rounded=1;" parent="21" vertex="1">
                    <mxGeometry y="-12" width="240" height="329.2" as="geometry"/>
                </mxCell>
                <mxCell id="22" value="ID" style="text;align=left;verticalAlign=top;spacingLeft=4;spacingRight=4;overflow=hidden;rotatable=0;points=[[0,0.5],[1,0.5]];portConstraint=eastwest;whiteSpace=wrap;html=1;fillStyle=solid;rounded=1;fillColor=#1A1A1A;" parent="2" vertex="1">
                    <mxGeometry y="26" width="240" height="34" as="geometry"/>
                </mxCell>
                <mxCell id="23" value="Title(CHAR)" style="text;align=left;verticalAlign=top;spacingLeft=4;spacingRight=4;overflow=hidden;rotatable=0;points=[[0,0.5],[1,0.5]];portConstraint=eastwest;whiteSpace=wrap;html=1;fillStyle=solid;fillColor=#999999;rounded=1;fontColor=#ffffff;strokeColor=#001DBC;" parent="2" vertex="1">
                    <mxGeometry y="60" width="240" height="34" as="geometry"/>
                </mxCell>
                <mxCell id="3" value="Experince Level = (&lt;br&gt;&lt;span style=&quot;&quot;&gt;&#9;&lt;/span&gt;(experienced,experinced),&lt;br&gt;&lt;span style=&quot;&quot;&gt;&#9;&lt;/span&gt;(intermediate,intermediate),&lt;br&gt;(internship,internship),&lt;br&gt;&lt;span style=&quot;&quot;&gt;&#9;&lt;/span&gt;&lt;br&gt;)" style="text;strokeColor=none;fillColor=#4D4D4D;align=left;verticalAlign=top;spacingLeft=4;spacingRight=4;overflow=hidden;rotatable=0;points=[[0,0.5],[1,0.5]];portConstraint=eastwest;whiteSpace=wrap;html=1;strokeWidth=11;gradientColor=none;rounded=1;" parent="2" vertex="1">
                    <mxGeometry y="94" width="240" height="75.2" as="geometry"/>
                </mxCell>
                <mxCell id="4" value="Job Type = (&lt;br&gt;(full-time,full-time),&lt;br&gt;(part-time,part-time),&lt;br&gt;(contractor,contractor),&lt;br&gt;&lt;br&gt;)" style="text;strokeColor=#001DBC;fillColor=#999999;align=left;verticalAlign=top;spacingLeft=4;spacingRight=4;overflow=hidden;rotatable=0;points=[[0,0.5],[1,0.5]];portConstraint=eastwest;whiteSpace=wrap;html=1;fillStyle=solid;rounded=1;fontColor=#ffffff;" parent="2" vertex="1">
                    <mxGeometry y="169.2" width="240" height="80" as="geometry"/>
                </mxCell>
                <mxCell id="5" value="Job Location = (&lt;br&gt;(local,local),&lt;br&gt;(international,international),&lt;br&gt;(remote,remote),&lt;br&gt;)" style="text;strokeColor=none;fillColor=#4D4D4D;align=left;verticalAlign=top;spacingLeft=4;spacingRight=4;overflow=hidden;rotatable=0;points=[[0,0.5],[1,0.5]];portConstraint=eastwest;whiteSpace=wrap;html=1;rounded=1;" parent="2" vertex="1">
                    <mxGeometry y="249.2" width="240" height="80" as="geometry"/>
                </mxCell>
                <mxCell id="24" value="&lt;font&gt;JOB&lt;/font&gt;" style="swimlane;fontStyle=0;childLayout=stackLayout;horizontal=1;startSize=30;horizontalStack=0;resizeParent=1;resizeParentMax=0;resizeLast=0;collapsible=1;marginBottom=0;whiteSpace=wrap;html=1;hachureGap=4;fontFamily=Times New Roman;fontSize=20;fillColor=default;rounded=1;strokeColor=#FF9999;" parent="1" vertex="1">
                    <mxGeometry x="432" y="72" width="268" height="378" as="geometry"/>
                </mxCell>
                <mxCell id="25" value="ID" style="text;align=left;verticalAlign=middle;spacingLeft=4;spacingRight=4;overflow=hidden;points=[[0,0.5],[1,0.5]];portConstraint=eastwest;rotatable=0;whiteSpace=wrap;html=1;fontSize=16;hachureGap=4;fontFamily=Times New Roman;rounded=1;fillColor=#1A1A1A;" parent="24" vertex="1">
                    <mxGeometry y="30" width="268" height="30" as="geometry"/>
                </mxCell>
                <mxCell id="77" value="Employer_ID(FK)" style="text;strokeColor=#6F0000;fillColor=#a20025;align=left;verticalAlign=middle;spacingLeft=4;spacingRight=4;overflow=hidden;points=[[0,0.5],[1,0.5]];portConstraint=eastwest;rotatable=0;whiteSpace=wrap;html=1;fontSize=16;hachureGap=4;fontFamily=Times New Roman;rounded=1;fontColor=#ffffff;" parent="24" vertex="1">
                    <mxGeometry y="60" width="268" height="30" as="geometry"/>
                </mxCell>
                <mxCell id="26" value="Name(CHAR)" style="text;strokeColor=#FF9999;fillColor=#4D4D4D;align=left;verticalAlign=middle;spacingLeft=4;spacingRight=4;overflow=hidden;points=[[0,0.5],[1,0.5]];portConstraint=eastwest;rotatable=0;whiteSpace=wrap;html=1;fontSize=16;hachureGap=4;fontFamily=Times New Roman;rounded=1;" parent="24" vertex="1">
                    <mxGeometry y="90" width="268" height="30" as="geometry"/>
                </mxCell>
                <mxCell id="45" value="Status = (&lt;br&gt;&lt;span style=&quot;white-space: pre;&quot;&gt;&lt;span style=&quot;white-space: pre;&quot;&gt;&#9;&lt;/span&gt;(draft,draft),&lt;br/&gt;&lt;span style=&quot;white-space: pre;&quot;&gt;&#9;&lt;/span&gt;(publlished,published)&#9;&lt;/span&gt;&lt;br&gt;)" style="text;strokeColor=#001DBC;fillColor=#999999;align=left;verticalAlign=middle;spacingLeft=4;spacingRight=4;overflow=hidden;points=[[0,0.5],[1,0.5]];portConstraint=eastwest;rotatable=0;whiteSpace=wrap;html=1;fontSize=16;hachureGap=4;fontFamily=Times New Roman;rounded=1;fontColor=#ffffff;" parent="24" vertex="1">
                    <mxGeometry y="120" width="268" height="78" as="geometry"/>
                </mxCell>
                <mxCell id="43" value="Job_Category(FK)" style="text;strokeColor=#6F0000;fillColor=#a20025;align=left;verticalAlign=middle;spacingLeft=4;spacingRight=4;overflow=hidden;points=[[0,0.5],[1,0.5]];portConstraint=eastwest;rotatable=0;whiteSpace=wrap;html=1;fontSize=16;hachureGap=4;fontFamily=Times New Roman;rounded=1;fontColor=#ffffff;" parent="24" vertex="1">
                    <mxGeometry y="198" width="268" height="30" as="geometry"/>
                </mxCell>
                <mxCell id="42" value="Job_Summary(TEXT)" style="text;strokeColor=#001DBC;fillColor=#999999;align=left;verticalAlign=middle;spacingLeft=4;spacingRight=4;overflow=hidden;points=[[0,0.5],[1,0.5]];portConstraint=eastwest;rotatable=0;whiteSpace=wrap;html=1;fontSize=16;hachureGap=4;fontFamily=Times New Roman;rounded=1;fontColor=#ffffff;" parent="24" vertex="1">
                    <mxGeometry y="228" width="268" height="30" as="geometry"/>
                </mxCell>
                <mxCell id="44" value="Responsibilities(TEXT)" style="text;strokeColor=#FF9999;fillColor=#4D4D4D;align=left;verticalAlign=middle;spacingLeft=4;spacingRight=4;overflow=hidden;points=[[0,0.5],[1,0.5]];portConstraint=eastwest;rotatable=0;whiteSpace=wrap;html=1;fontSize=16;hachureGap=4;fontFamily=Times New Roman;rounded=1;" parent="24" vertex="1">
                    <mxGeometry y="258" width="268" height="30" as="geometry"/>
                </mxCell>
                <mxCell id="96" value="Close_application" style="text;strokeColor=#FF9999;fillColor=#4D4D4D;align=left;verticalAlign=middle;spacingLeft=4;spacingRight=4;overflow=hidden;points=[[0,0.5],[1,0.5]];portConstraint=eastwest;rotatable=0;whiteSpace=wrap;html=1;fontSize=16;hachureGap=4;fontFamily=Times New Roman;rounded=1;" parent="24" vertex="1">
                    <mxGeometry y="288" width="268" height="30" as="geometry"/>
                </mxCell>
                <mxCell id="95" value="Date_Posted(DateTime)" style="text;strokeColor=#001DBC;fillColor=#999999;align=left;verticalAlign=middle;spacingLeft=4;spacingRight=4;overflow=hidden;points=[[0,0.5],[1,0.5]];portConstraint=eastwest;rotatable=0;whiteSpace=wrap;html=1;fontSize=16;hachureGap=4;fontFamily=Times New Roman;rounded=1;fontColor=#ffffff;" parent="24" vertex="1">
                    <mxGeometry y="318" width="268" height="30" as="geometry"/>
                </mxCell>
                <mxCell id="27" value="Date_Updated(DateTime)" style="text;strokeColor=#001DBC;fillColor=#999999;align=left;verticalAlign=middle;spacingLeft=4;spacingRight=4;overflow=hidden;points=[[0,0.5],[1,0.5]];portConstraint=eastwest;rotatable=0;whiteSpace=wrap;html=1;fontSize=16;hachureGap=4;fontFamily=Times New Roman;rounded=1;fontColor=#ffffff;" parent="24" vertex="1">
                    <mxGeometry y="348" width="268" height="30" as="geometry"/>
                </mxCell>
                <mxCell id="46" value="&lt;span style=&quot;font-size: 18px;&quot;&gt;JOB APPLICATION&lt;/span&gt;" style="swimlane;fontStyle=0;childLayout=stackLayout;horizontal=1;startSize=30;horizontalStack=0;resizeParent=1;resizeParentMax=0;resizeLast=0;collapsible=1;marginBottom=0;whiteSpace=wrap;html=1;rounded=1;glass=0;" parent="1" vertex="1">
                    <mxGeometry x="816" y="288" width="268" height="210" as="geometry"/>
                </mxCell>
                <mxCell id="47" value="ID" style="text;align=left;verticalAlign=middle;spacingLeft=4;spacingRight=4;overflow=hidden;points=[[0,0.5],[1,0.5]];portConstraint=eastwest;rotatable=0;whiteSpace=wrap;html=1;rounded=1;glass=0;fillColor=#1A1A1A;" parent="46" vertex="1">
                    <mxGeometry y="30" width="268" height="30" as="geometry"/>
                </mxCell>
                <mxCell id="48" value="Job(FK)" style="text;align=left;verticalAlign=middle;spacingLeft=4;spacingRight=4;overflow=hidden;points=[[0,0.5],[1,0.5]];portConstraint=eastwest;rotatable=0;whiteSpace=wrap;html=1;rounded=1;glass=0;fillColor=#a20025;fontColor=#ffffff;strokeColor=#6F0000;" parent="46" vertex="1">
                    <mxGeometry y="60" width="268" height="30" as="geometry"/>
                </mxCell>
                <mxCell id="50" value="Student_id(INT)" style="text;strokeColor=#FF9999;fillColor=#999999;align=left;verticalAlign=middle;spacingLeft=4;spacingRight=4;overflow=hidden;points=[[0,0.5],[1,0.5]];portConstraint=eastwest;rotatable=0;whiteSpace=wrap;html=1;rounded=1;glass=0;" parent="46" vertex="1">
                    <mxGeometry y="90" width="268" height="30" as="geometry"/>
                </mxCell>
                <mxCell id="52" value="CV_upload(FILEFIELD)" style="text;align=left;verticalAlign=middle;spacingLeft=4;spacingRight=4;overflow=hidden;points=[[0,0.5],[1,0.5]];portConstraint=eastwest;rotatable=0;whiteSpace=wrap;html=1;rounded=1;glass=0;fillColor=#1A1A1A;" parent="46" vertex="1">
                    <mxGeometry y="120" width="268" height="30" as="geometry"/>
                </mxCell>
                <mxCell id="51" value="Year_of_experince(CHAR)" style="text;strokeColor=#FF9999;fillColor=#999999;align=left;verticalAlign=middle;spacingLeft=4;spacingRight=4;overflow=hidden;points=[[0,0.5],[1,0.5]];portConstraint=eastwest;rotatable=0;whiteSpace=wrap;html=1;rounded=1;glass=0;" parent="46" vertex="1">
                    <mxGeometry y="150" width="268" height="30" as="geometry"/>
                </mxCell>
                <mxCell id="49" value="Date_Applied(DateTime)" style="text;align=left;verticalAlign=middle;spacingLeft=4;spacingRight=4;overflow=hidden;points=[[0,0.5],[1,0.5]];portConstraint=eastwest;rotatable=0;whiteSpace=wrap;html=1;rounded=1;glass=0;fillColor=#1A1A1A;" parent="46" vertex="1">
                    <mxGeometry y="180" width="268" height="30" as="geometry"/>
                </mxCell>
                <mxCell id="53" value="EMPLOYER" style="swimlane;fontStyle=0;childLayout=stackLayout;horizontal=1;startSize=30;horizontalStack=0;resizeParent=1;resizeParentMax=0;resizeLast=0;collapsible=1;marginBottom=0;whiteSpace=wrap;html=1;rounded=1;glass=0;strokeColor=#FF9999;fontSize=18;fillColor=#1A1A1A;" parent="1" vertex="1">
                    <mxGeometry x="816" y="12" width="256" height="210" as="geometry"/>
                </mxCell>
                <mxCell id="55" value="ID" style="text;strokeColor=#FF9999;fillColor=#999999;align=left;verticalAlign=middle;spacingLeft=4;spacingRight=4;overflow=hidden;points=[[0,0.5],[1,0.5]];portConstraint=eastwest;rotatable=0;whiteSpace=wrap;html=1;rounded=1;glass=0;fontSize=18;" parent="53" vertex="1">
                    <mxGeometry y="30" width="256" height="30" as="geometry"/>
                </mxCell>
                <mxCell id="94" value="User(One2One)" style="text;strokeColor=#FF9999;fillColor=#999999;align=left;verticalAlign=middle;spacingLeft=4;spacingRight=4;overflow=hidden;points=[[0,0.5],[1,0.5]];portConstraint=eastwest;rotatable=0;whiteSpace=wrap;html=1;rounded=1;glass=0;fontSize=18;" parent="53" vertex="1">
                    <mxGeometry y="60" width="256" height="30" as="geometry"/>
                </mxCell>
                <mxCell id="54" value="full_name(CHAR)" style="text;strokeColor=#FF9999;fillColor=#1A1A1A;align=left;verticalAlign=middle;spacingLeft=4;spacingRight=4;overflow=hidden;points=[[0,0.5],[1,0.5]];portConstraint=eastwest;rotatable=0;whiteSpace=wrap;html=1;rounded=1;glass=0;fontSize=18;" parent="53" vertex="1">
                    <mxGeometry y="90" width="256" height="30" as="geometry"/>
                </mxCell>
                <mxCell id="97" value="company_name(CHAR)" style="text;strokeColor=#FF9999;fillColor=#1A1A1A;align=left;verticalAlign=middle;spacingLeft=4;spacingRight=4;overflow=hidden;points=[[0,0.5],[1,0.5]];portConstraint=eastwest;rotatable=0;whiteSpace=wrap;html=1;rounded=1;glass=0;fontSize=18;" vertex="1" parent="53">
                    <mxGeometry y="120" width="256" height="30" as="geometry"/>
                </mxCell>
                <mxCell id="65" value="Tagline(Text)" style="text;strokeColor=#FF9999;fillColor=#999999;align=left;verticalAlign=middle;spacingLeft=4;spacingRight=4;overflow=hidden;points=[[0,0.5],[1,0.5]];portConstraint=eastwest;rotatable=0;whiteSpace=wrap;html=1;rounded=1;glass=0;fontSize=18;" parent="53" vertex="1">
                    <mxGeometry y="150" width="256" height="30" as="geometry"/>
                </mxCell>
                <mxCell id="56" value="company_logo(ImageField)" style="text;strokeColor=#FF9999;fillColor=#1A1A1A;align=left;verticalAlign=middle;spacingLeft=4;spacingRight=4;overflow=hidden;points=[[0,0.5],[1,0.5]];portConstraint=eastwest;rotatable=0;whiteSpace=wrap;html=1;rounded=1;glass=0;fontSize=18;" parent="53" vertex="1">
                    <mxGeometry y="180" width="256" height="30" as="geometry"/>
                </mxCell>
                <mxCell id="74" style="edgeStyle=none;html=1;fontSize=18;exitX=1;exitY=0.5;exitDx=0;exitDy=0;" parent="1" source="22" edge="1">
                    <mxGeometry relative="1" as="geometry">
                        <mxPoint x="432" y="288" as="targetPoint"/>
                        <Array as="points">
                            <mxPoint x="372" y="103"/>
                            <mxPoint x="372" y="288"/>
                        </Array>
                    </mxGeometry>
                </mxCell>
                <mxCell id="76" style="edgeStyle=none;html=1;entryX=0;entryY=0.5;entryDx=0;entryDy=0;fontSize=18;exitX=1;exitY=0.5;exitDx=0;exitDy=0;" parent="1" source="25" target="48" edge="1">
                    <mxGeometry relative="1" as="geometry">
                        <mxPoint x="696" y="156" as="sourcePoint"/>
                        <Array as="points">
                            <mxPoint x="756" y="117"/>
                            <mxPoint x="756" y="240"/>
                            <mxPoint x="756" y="297"/>
                        </Array>
                    </mxGeometry>
                </mxCell>
                <mxCell id="93" style="edgeStyle=none;html=1;fontSize=18;exitX=1;exitY=0.5;exitDx=0;exitDy=0;entryX=-0.005;entryY=0.687;entryDx=0;entryDy=0;entryPerimeter=0;" parent="1" source="77" target="55" edge="1">
                    <mxGeometry relative="1" as="geometry">
                        <mxPoint x="700" y="147" as="sourcePoint"/>
                        <mxPoint x="826.7199999999998" y="86.61000000000001" as="targetPoint"/>
                        <Array as="points">
                            <mxPoint x="720" y="147"/>
                            <mxPoint x="780" y="147"/>
                            <mxPoint x="780" y="84"/>
                        </Array>
                    </mxGeometry>
                </mxCell>
            </root>
        </mxGraphModel>
    </diagram>
</mxfile>